<svg xmlns="http://www.w3.org/2000/svg" width="640" height="420" viewBox="0 0 640 420" font-family="ui-monospace, 'SF Mono', Menlo, monospace">
  <rect width="640" height="420" fill="#0e1822"/>

  <defs>
    <symbol id="anthropic" viewBox="-10 -10 20 20">
      <path d="M 0 -8 L 1.8 -1.8 L 8 0 L 1.8 1.8 L 0 8 L -1.8 1.8 L -8 0 L -1.8 -1.8 Z" fill="#fff"/>
    </symbol>
    <symbol id="openai" viewBox="-10 -10 20 20">
      <g fill="none" stroke="#fff" stroke-width="1.6" stroke-linecap="round">
        <ellipse cx="0" cy="0" rx="7.5" ry="2.6"/>
        <ellipse cx="0" cy="0" rx="7.5" ry="2.6" transform="rotate(60)"/>
        <ellipse cx="0" cy="0" rx="7.5" ry="2.6" transform="rotate(120)"/>
      </g>
    </symbol>
  </defs>

  <!-- LEFT: widget -->
  <g transform="translate(40,30)">
    <rect x="4" y="6" width="280" height="320" rx="10" fill="#000" opacity="0.45"/>
    <rect x="0" y="0" width="280" height="320" rx="10" fill="#1a2332" stroke="#2c3a4d" stroke-width="1"/>

    <rect x="0" y="0" width="280" height="32" rx="10" fill="#15202c"/>
    <rect x="0" y="22" width="280" height="10" fill="#15202c"/>
    <circle cx="14" cy="16" r="5" fill="#e74c3c"/>
    <circle cx="30" cy="16" r="5" fill="#f39c12"/>
    <circle cx="46" cy="16" r="5" fill="#27ae60"/>
    <text x="140" y="20" fill="#cfd8dc" font-size="11" text-anchor="middle">Orchestrator</text>
    <text x="260" y="20" fill="#7a8a9a" font-size="13" text-anchor="middle">📌</text>

    <!-- ===== users/23738 ===== -->
    <g transform="translate(12,46)">
      <text x="0" y="10" fill="#7a8a9a" font-size="10">▾ users/23738</text>

      <!-- Row 1: codex running, low context -->
      <g transform="translate(0,18)">
        <rect width="256" height="28" rx="4" fill="#22303f"/>
        <rect x="6" y="5" width="18" height="18" rx="3" fill="#3a7a8a"/>
        <use href="#openai" x="7" y="6" width="16" height="16"/>
        <circle cx="34" cy="14" r="4" fill="#ffd166"/>
        <text x="46" y="13" fill="#e8e8e8" font-size="11">Where do I find the…</text>
        <text x="46" y="24" fill="#ffd166" font-size="9">running · 0:03</text>
        <text x="248" y="13" fill="#cfd8dc" font-size="10" text-anchor="end">8%</text>
        <text x="248" y="24" fill="#5a6a7a" font-size="9" text-anchor="end">[400K]</text>
      </g>

      <!-- Row 2: claude running, mid context -->
      <g transform="translate(0,50)">
        <rect width="256" height="28" rx="4" fill="#22303f"/>
        <rect x="6" y="5" width="18" height="18" rx="3" fill="#a64633"/>
        <use href="#anthropic" x="7" y="6" width="16" height="16"/>
        <circle cx="34" cy="14" r="4" fill="#ffd166"/>
        <text x="46" y="13" fill="#e8e8e8" font-size="11">Why dropdown is empty…</text>
        <text x="46" y="24" fill="#ffd166" font-size="9">running · 0:08</text>
        <text x="248" y="13" fill="#cfd8dc" font-size="10" text-anchor="end">35%</text>
        <text x="248" y="24" fill="#5a6a7a" font-size="9" text-anchor="end">[200K]</text>
      </g>

      <!-- Row 3: claude waiting, HIGH context (warning color) -->
      <g transform="translate(0,82)">
        <rect width="256" height="28" rx="4" fill="#22303f" stroke="#ef476f" stroke-width="1" stroke-opacity="0.7"/>
        <rect x="6" y="5" width="18" height="18" rx="3" fill="#a64633"/>
        <use href="#anthropic" x="7" y="6" width="16" height="16"/>
        <circle cx="34" cy="14" r="4" fill="#ef476f"/>
        <text x="46" y="13" fill="#e8e8e8" font-size="11">Orchestrator</text>
        <text x="46" y="24" fill="#ef476f" font-size="9">waiting · 0:42</text>
        <text x="248" y="13" fill="#f39c12" font-size="10" text-anchor="end" font-weight="bold">78%</text>
        <text x="248" y="24" fill="#5a6a7a" font-size="9" text-anchor="end">[200K]</text>
      </g>
    </g>

    <!-- ===== palisade/self-replication ===== -->
    <g transform="translate(12,180)">
      <text x="0" y="10" fill="#7a8a9a" font-size="10">▾ palisade/self-replication</text>

      <g transform="translate(0,18)">
        <rect width="256" height="28" rx="4" fill="#22303f"/>
        <rect x="6" y="5" width="18" height="18" rx="3" fill="#a64633"/>
        <use href="#anthropic" x="7" y="6" width="16" height="16"/>
        <circle cx="34" cy="14" r="4" fill="#06d6a0"/>
        <text x="46" y="13" fill="#e8e8e8" font-size="11">replication-evals</text>
        <text x="46" y="24" fill="#06d6a0" font-size="9">done · 12:04</text>
        <text x="248" y="13" fill="#cfd8dc" font-size="10" text-anchor="end">45%</text>
        <text x="248" y="24" fill="#5a6a7a" font-size="9" text-anchor="end">[200K]</text>
      </g>
    </g>

    <!-- ===== personal/orchestrator ===== -->
    <g transform="translate(12,244)">
      <text x="0" y="10" fill="#7a8a9a" font-size="10">▾ personal/orchestrator</text>

      <g transform="translate(0,18)">
        <rect width="256" height="28" rx="4" fill="#22303f"/>
        <rect x="6" y="5" width="18" height="18" rx="3" fill="#3a7a8a"/>
        <use href="#openai" x="7" y="6" width="16" height="16"/>
        <circle cx="34" cy="14" r="4" fill="#6c7a89"/>
        <text x="46" y="13" fill="#e8e8e8" font-size="11">phase-5-tauri</text>
        <text x="46" y="24" fill="#6c7a89" font-size="9">idle</text>
        <text x="248" y="13" fill="#cfd8dc" font-size="10" text-anchor="end">12%</text>
        <text x="248" y="24" fill="#5a6a7a" font-size="9" text-anchor="end">[400K]</text>
      </g>
    </g>
  </g>

  <!-- RIGHT: tooltip -->
  <path d="M 320 78 Q 360 78 370 90" fill="none" stroke="#3a7a8a" stroke-width="1.5" stroke-dasharray="3,3" opacity="0.6"/>

  <g transform="translate(370,60)">
    <rect x="0" y="0" width="240" height="140" rx="6" fill="#0c141c" stroke="#3a7a8a" stroke-width="1"/>
    <text x="12" y="20" fill="#cfd8dc" font-size="11" font-weight="bold">Where do I find the dialog name…</text>
    <text x="12" y="34" fill="#7a8a9a" font-size="9">codex · gpt-5.4 · running · 0:03</text>
    <text x="228" y="34" fill="#7a8a9a" font-size="9" text-anchor="end">8% of 400K</text>
    <line x1="12" y1="42" x2="228" y2="42" stroke="#2c3a4d"/>
    <text x="12" y="58" fill="#7a8a9a" font-size="9">last prompt:</text>
    <text x="12" y="74" fill="#e8e8e8" font-size="10">«Где мне посмотреть</text>
    <text x="12" y="88" fill="#e8e8e8" font-size="10">название этого диалога?»</text>
    <text x="12" y="128" fill="#5a6a7a" font-size="9">/mnt/c/users/23738</text>
  </g>
  <text x="370" y="220" fill="#7a8a9a" font-size="10">↑ on row hover</text>

  <text x="40" y="380" fill="#5a6a7a" font-size="10">~280×320 px · always-on-top widget</text>
</svg>
